<?xml version="1.0" encoding="UTF-8"?>
<svg width="14px" height="15px" viewBox="0 0 14 15" version="1.1" xmlns="http://www.w3.org/2000/svg" xmlns:xlink="http://www.w3.org/1999/xlink">
    <title>box-arrow-up-right</title>
    <g id="Page-1" stroke="none" stroke-width="1" fill="none" fill-rule="evenodd">
        <g id="Search-&amp;-Highlight" transform="translate(-384.000000, -666.000000)" fill="#FFFFFF" fill-rule="nonzero">
            <g id="Content" transform="translate(0.000000, 480.000000)">
                <g id="Alerts" transform="translate(149.000000, 170.000000)">
                    <g id="box-arrow-up-right" transform="translate(235.000000, 16.000000)">
                        <path d="M7.5565,3.25390625 C7.5565,2.99718014 7.36062458,2.7890625 7.119,2.7890625 L1.3125,2.7890625 C0.587626266,2.7890625 0,3.41341541 0,4.18359375 L0,13.4804688 C0,14.2506471 0.587626266,14.875 1.3125,14.875 L10.0625,14.875 C10.7873737,14.875 11.375,14.2506471 11.375,13.4804688 L11.375,7.3110625 C11.375,7.05433639 11.1791246,6.84621875 10.9375,6.84621875 C10.6958754,6.84621875 10.5,7.05433639 10.5,7.3110625 L10.5,13.4804688 C10.5,13.7371949 10.3041246,13.9453125 10.0625,13.9453125 L1.3125,13.9453125 C1.07087542,13.9453125 0.875,13.7371949 0.875,13.4804688 L0.875,4.18359375 C0.875,3.92686764 1.07087542,3.71875 1.3125,3.71875 L7.119,3.71875 C7.36062458,3.71875 7.5565,3.51063236 7.5565,3.25390625 Z" id="Path"></path>
                        <path d="M14,0.46484375 C14,0.208117636 13.8041246,0 13.5625,0 L9.1875,0 C8.94587542,0 8.75,0.208117636 8.75,0.46484375 C8.75,0.721569864 8.94587542,0.9296875 9.1875,0.9296875 L12.506375,0.9296875 L5.37775,8.50292187 C5.26708698,8.62050133 5.22386815,8.79187712 5.26437363,8.95249364 C5.3048791,9.11311017 5.42295514,9.23856596 5.57412363,9.28160302 C5.72529212,9.32464009 5.88658698,9.27872008 5.99725,9.16114062 L13.125,1.58697656 L13.125,5.11328125 C13.125,5.37000736 13.3208754,5.578125 13.5625,5.578125 C13.8041246,5.578125 14,5.37000736 14,5.11328125 L14,0.46484375 Z" id="Path"></path>
                    </g>
                </g>
            </g>
        </g>
    </g>
</svg>