<?xml version="1.0" encoding="UTF-8"?>
<svg width="43px" height="34px" viewBox="0 0 43 34" version="1.1" xmlns="http://www.w3.org/2000/svg" xmlns:xlink="http://www.w3.org/1999/xlink">
    <title>bootstrap-5-1</title>
    <g id="Page-1" stroke="none" stroke-width="1" fill="none" fill-rule="evenodd">
        <g id="Bootstrap-5-Cheat-Sheet" transform="translate(-152.000000, -18.000000)" fill="#FFFFFF">
            <g id="bootstrap-5-1" transform="translate(152.000000, 18.000000)">
                <path d="M8.93123438,0 C6.47771484,0 4.66222461,2.13154385 4.74352148,4.44314772 C4.82154297,6.66397132 4.72017383,9.54026342 3.99068555,11.8858786 C3.25859375,14.2380794 2.02133594,15.7286596 0,15.9199733 L0,18.0800267 C2.02133594,18.2717573 3.25859375,19.7615872 3.99060156,22.1141214 C4.72017383,24.4597366 4.82145898,27.3360287 4.7434375,29.5568523 C4.66214063,31.8681227 6.47763086,34 8.93157031,34 L34.072041,34 C36.5255605,34 38.3407148,31.8684562 38.259418,29.5568523 C38.1813965,27.3360287 38.2827656,24.4597366 39.0122539,22.1141214 C39.7443457,19.7615872 40.9785801,18.2711737 43,18.0800267 L43,15.9199733 C40.9786641,15.7282427 39.7444297,14.2384128 39.0122539,11.8858786 C38.2826816,9.54059687 38.1813965,6.66397132 38.259418,4.44314772 C38.3407148,2.13187729 36.5255605,0 34.072041,0 L8.93089844,0 L8.93123438,0 Z M29.1525723,20.9292264 C29.1525723,24.1122041 26.7606133,26.0425975 22.7910918,26.0425975 L16.033877,26.0425975 C15.6313628,26.0425975 15.3050605,25.7187168 15.3050605,25.3191897 L15.3050605,8.68089363 C15.3050605,8.28136653 15.6313628,7.95748583 16.033877,7.95748583 L22.752627,7.95748583 C26.0625352,7.95748583 28.234791,9.73707903 28.234791,12.4693231 C28.234791,14.3870457 26.7734629,16.103868 24.9117813,16.4046349 L24.9117813,16.5046682 C27.4460938,16.7805935 29.1525723,18.5228409 29.1525723,20.9292264 L29.1525723,20.9292264 Z M22.0542969,10.2506669 L18.2014297,10.2506669 L18.2014297,15.6524675 L21.446502,15.6524675 C23.9551152,15.6524675 25.3383379,14.6497999 25.3383379,12.8576192 C25.3380859,11.1780594 24.1488672,10.2506669 22.0542969,10.2506669 Z M18.2014297,17.7957653 L18.2014297,23.7486662 L22.1960625,23.7486662 C24.8079766,23.7486662 26.1914512,22.7084028 26.1914512,20.7534178 C26.1914512,18.7984328 24.7691758,17.7954318 22.0280938,17.7954318 L18.2014297,17.7954318 L18.2014297,17.7957653 Z" id="Shape"></path>
            </g>
        </g>
    </g>
</svg>