<svg id="Layer_1" data-name="Layer 1" xmlns="http://www.w3.org/2000/svg" viewBox="0 0 156.5 34"><defs><style>.cls-1{isolation:isolate;}.cls-2,.cls-3{fill:#fff;}.cls-3{fill-rule:evenodd;}</style></defs><title>cheat-sheet-logo-2</title><g id="Page-1"><g id="cheat-sheet-logo"><g id="Bootstrap-5" class="cls-1"><g class="cls-1"><path class="cls-2" d="M61.1,10.5a2.9,2.9,0,0,1,.5,1.7,2.4,2.4,0,0,1-1,2.1,5.1,5.1,0,0,1-3,.7h-5V4.5h4.7a4.7,4.7,0,0,1,2.8.7,2.5,2.5,0,0,1,.9,2,2.9,2.9,0,0,1-.3,1.4,3.6,3.6,0,0,1-1.1,1A2.4,2.4,0,0,1,61.1,10.5Zm-7-4.8V9.1h3a3,3,0,0,0,1.8-.5,1.3,1.3,0,0,0,.6-1.2,1.5,1.5,0,0,0-.6-1.3,4,4,0,0,0-1.8-.4Zm5.3,7.7a1.5,1.5,0,0,0,.7-1.4c0-1.1-.9-1.7-2.6-1.7H54.1v3.5h3.4A4.1,4.1,0,0,0,59.4,13.4Z" transform="translate(0 -3)"/><path class="cls-2" d="M65.1,14.6a4,4,0,0,1-1.4-1.5,3.7,3.7,0,0,1-.6-2.1,3.7,3.7,0,0,1,.6-2.1,3.2,3.2,0,0,1,1.4-1.4A4.2,4.2,0,0,1,67.3,7a3.6,3.6,0,0,1,2.1.5,4,4,0,0,1,1.5,1.4,4.7,4.7,0,0,1,0,4.2,5.4,5.4,0,0,1-1.5,1.5,4.6,4.6,0,0,1-2.1.5A5.4,5.4,0,0,1,65.1,14.6Zm3.5-1.1a2.4,2.4,0,0,0,1-1,3.3,3.3,0,0,0,.3-1.5,3.2,3.2,0,0,0-.3-1.4,1.7,1.7,0,0,0-1-1,2,2,0,0,0-1.3-.4,2.3,2.3,0,0,0-1.4.4,2.4,2.4,0,0,0-1,1,3.2,3.2,0,0,0-.3,1.4,3.3,3.3,0,0,0,.3,1.5,4.7,4.7,0,0,0,1,1,3.2,3.2,0,0,0,1.4.3A2.8,2.8,0,0,0,68.6,13.5Z" transform="translate(0 -3)"/><path class="cls-2" d="M74.8,14.6a5.4,5.4,0,0,1-1.5-1.5,4.7,4.7,0,0,1,0-4.2,4,4,0,0,1,1.5-1.4A3.8,3.8,0,0,1,76.9,7a4.2,4.2,0,0,1,2.2.5,3.2,3.2,0,0,1,1.4,1.4,3.7,3.7,0,0,1,.6,2.1,3.7,3.7,0,0,1-.6,2.1,4,4,0,0,1-1.4,1.5,5.4,5.4,0,0,1-2.2.5A5,5,0,0,1,74.8,14.6Zm3.5-1.1a4.7,4.7,0,0,0,1-1,3.3,3.3,0,0,0,.3-1.5,3.2,3.2,0,0,0-.3-1.4,2.4,2.4,0,0,0-1-1,2.1,2.1,0,0,0-1.4-.4,2,2,0,0,0-1.3.4,2.4,2.4,0,0,0-1,1,3.2,3.2,0,0,0-.3,1.4,3.3,3.3,0,0,0,.3,1.5l1,1a2.8,2.8,0,0,0,1.3.3A2.9,2.9,0,0,0,78.3,13.5Z" transform="translate(0 -3)"/><path class="cls-2" d="M87.7,14.5a1.2,1.2,0,0,1-.8.4l-1,.2a2.1,2.1,0,0,1-1.8-.7,2.1,2.1,0,0,1-.7-1.8V8.2H82.1V7h1.3V5.3h1.5V7h2.2V8.2H84.9v4.3a1.3,1.3,0,0,0,.3,1,1,1,0,0,0,.9.4,1.4,1.4,0,0,0,1.1-.4Z" transform="translate(0 -3)"/><path class="cls-2" d="M90,14.8a3.7,3.7,0,0,1-1.4-.6l.6-1.2a2.3,2.3,0,0,0,1.2.6,4.4,4.4,0,0,0,1.6.2c1.2,0,1.9-.3,1.9-1a.6.6,0,0,0-.3-.6l-.6-.3-1.1-.2-1.6-.4a2.1,2.1,0,0,1-1-.6,1.9,1.9,0,0,1-.5-1.3,2.1,2.1,0,0,1,.9-1.8A4.3,4.3,0,0,1,92.1,7a4.1,4.1,0,0,1,1.6.2,3.2,3.2,0,0,1,1.3.5l-.6,1.1a4.1,4.1,0,0,0-2.3-.6,2.9,2.9,0,0,0-1.4.3.9.9,0,0,0-.4.8c0,.3,0,.5.2.6a.9.9,0,0,0,.7.3l1.1.3,1.6.3,1,.7a1.6,1.6,0,0,1,.4,1.2,2.1,2.1,0,0,1-.9,1.8,4.6,4.6,0,0,1-2.5.6A5.8,5.8,0,0,1,90,14.8Z" transform="translate(0 -3)"/><path class="cls-2" d="M101.7,14.5a1.2,1.2,0,0,1-.8.4l-.9.2a2.5,2.5,0,0,1-1.9-.7,2.4,2.4,0,0,1-.6-1.8V8.2H96.1V7h1.4V5.3h1.4V7h2.3V8.2H98.9v4.3a1.3,1.3,0,0,0,.3,1,1,1,0,0,0,.9.4,1.6,1.6,0,0,0,1.2-.4Z" transform="translate(0 -3)"/><path class="cls-2" d="M106.1,7.3a4.8,4.8,0,0,1,1.8-.3V8.4h-.4a2.4,2.4,0,0,0-1.8.7A2.7,2.7,0,0,0,105,11v4h-1.4V7H105V8.4A2.3,2.3,0,0,1,106.1,7.3Z" transform="translate(0 -3)"/><path class="cls-2" d="M115.2,7.8a3,3,0,0,1,.9,2.4V15h-1.4V14a2.7,2.7,0,0,1-1,.8,4.1,4.1,0,0,1-1.6.3,2.8,2.8,0,0,1-2.1-.7,1.7,1.7,0,0,1-.8-1.6,1.9,1.9,0,0,1,.7-1.7,3.6,3.6,0,0,1,2.5-.7h2.2v-.3a1.6,1.6,0,0,0-.5-1.4,2.5,2.5,0,0,0-1.6-.5,3.5,3.5,0,0,0-1.4.3,2.4,2.4,0,0,0-1.1.6L109.4,8a5.3,5.3,0,0,1,1.5-.8l1.8-.2A3.3,3.3,0,0,1,115.2,7.8Zm-1.4,5.8a1.6,1.6,0,0,0,.8-1V11.5h-2.2q-1.8,0-1.8,1.2a.9.9,0,0,0,.5.9,1.6,1.6,0,0,0,1.2.4A2.4,2.4,0,0,0,113.8,13.6Z" transform="translate(0 -3)"/><path class="cls-2" d="M125.2,7.5a3.2,3.2,0,0,1,1.4,1.4,3.6,3.6,0,0,1,.5,2.1,3.6,3.6,0,0,1-.5,2.1,3.4,3.4,0,0,1-1.4,1.5,4.6,4.6,0,0,1-2.1.5,3.3,3.3,0,0,1-1.5-.3l-1.3-1v4.1h-1.4V7h1.4V8.3a2.9,2.9,0,0,1,1.2-1,4.1,4.1,0,0,1,1.6-.3A3.6,3.6,0,0,1,125.2,7.5Zm-.8,6a2.8,2.8,0,0,0,.9-1,2.4,2.4,0,0,0,.4-1.5,2.3,2.3,0,0,0-.4-1.4,1.8,1.8,0,0,0-.9-1,2.3,2.3,0,0,0-1.4-.4,3.3,3.3,0,0,0-1.4.4,2.2,2.2,0,0,0-.9,1,2.3,2.3,0,0,0-.4,1.4,2.4,2.4,0,0,0,.4,1.5,2.8,2.8,0,0,0,.9,1,3.4,3.4,0,0,0,2.8,0Z" transform="translate(0 -3)"/><path class="cls-2" d="M139.1,9.5a3,3,0,0,1,1.1,2.3,3.1,3.1,0,0,1-.5,1.7,2.6,2.6,0,0,1-1.3,1.2,4.8,4.8,0,0,1-2.2.4l-2.1-.3a4,4,0,0,1-1.7-1l.6-1.1,1.4.8,1.8.3a3,3,0,0,0,1.8-.5,1.6,1.6,0,0,0,.7-1.4,1.7,1.7,0,0,0-.7-1.4,4.9,4.9,0,0,0-2.5-.5h-2.4l.6-5.5h5.9V5.8h-4.7l-.2,2.9h1.1A5.7,5.7,0,0,1,139.1,9.5Z" transform="translate(0 -3)"/></g></g><g id="CheatSheet" class="cls-1"><g class="cls-1"><path class="cls-2" d="M54.8,34.4a5.4,5.4,0,0,1-2.3-2.2,5.7,5.7,0,0,1-.8-3.2,5.5,5.5,0,0,1,.8-3.1,5.4,5.4,0,0,1,2.3-2.2,7.3,7.3,0,0,1,3.3-.8,7.8,7.8,0,0,1,2.8.5A4.9,4.9,0,0,1,63,25l-1.7,1.6a4,4,0,0,0-5-.9,3.8,3.8,0,0,0-1.4,1.4,4.1,4.1,0,0,0-.4,1.9,4.2,4.2,0,0,0,.4,2,3.8,3.8,0,0,0,1.4,1.4,4.2,4.2,0,0,0,2,.5,4,4,0,0,0,3-1.5L63,33.1a5.6,5.6,0,0,1-2.1,1.6,8.2,8.2,0,0,1-2.8.5A7.3,7.3,0,0,1,54.8,34.4Z" transform="translate(0 -3)"/><path class="cls-2" d="M73.2,26.7a4.1,4.1,0,0,1,1,3.1V35H71.6V30.2a2.6,2.6,0,0,0-.5-1.7,2,2,0,0,0-1.4-.5,2.1,2.1,0,0,0-1.6.6,2.7,2.7,0,0,0-.6,1.9V35H64.9V22.4h2.6v4.4a5.7,5.7,0,0,1,1.3-.8,4.1,4.1,0,0,1,1.6-.3A4.3,4.3,0,0,1,73.2,26.7Z" transform="translate(0 -3)"/><path class="cls-2" d="M85.8,31.2H78.9a2.2,2.2,0,0,0,.8,1.3,3.5,3.5,0,0,0,1.8.5l1.2-.2a2.6,2.6,0,0,0,1.1-.7l1.4,1.6a5.1,5.1,0,0,1-3.8,1.4,6,6,0,0,1-2.7-.6,4.9,4.9,0,0,1-1.9-1.6,5.4,5.4,0,0,1-.6-2.5,4.8,4.8,0,0,1,.6-2.4,4.9,4.9,0,0,1,1.8-1.7,5.1,5.1,0,0,1,2.5-.6,4.8,4.8,0,0,1,2.4.6A4,4,0,0,1,85.2,28a4.9,4.9,0,0,1,.6,2.5Zm-6.2-3a2.5,2.5,0,0,0-.8,1.4h4.5a2.3,2.3,0,0,0-.7-1.4,2.5,2.5,0,0,0-3,0Z" transform="translate(0 -3)"/><path class="cls-2" d="M94.5,26.7a4.2,4.2,0,0,1,1.1,3.1V35H93.1V33.9a3,3,0,0,1-2.8,1.2,4.8,4.8,0,0,1-1.8-.3,4,4,0,0,1-1.2-1,3.3,3.3,0,0,1-.4-1.4,2.1,2.1,0,0,1,1-2,4.6,4.6,0,0,1,2.9-.8H93a1.5,1.5,0,0,0-.6-1.3,2.2,2.2,0,0,0-1.6-.5l-1.4.3a2.3,2.3,0,0,0-1.2.6l-.9-1.9a7.5,7.5,0,0,1,1.8-.8,7.6,7.6,0,0,1,2.1-.3A5.4,5.4,0,0,1,94.5,26.7ZM92.2,33a1.8,1.8,0,0,0,.8-.9v-.9H91.1c-1.1,0-1.6.3-1.6,1a1,1,0,0,0,.4.9,1.8,1.8,0,0,0,1.1.3A2.1,2.1,0,0,0,92.2,33Z" transform="translate(0 -3)"/><path class="cls-2" d="M104.1,34.6l-1,.4h-1.2a3.3,3.3,0,0,1-2.5-.8,3.2,3.2,0,0,1-.9-2.4V28.1H97.1v-2h1.4V23.8h2.6v2.3h2.3v2h-2.3v3.7a1.1,1.1,0,0,0,1.2,1.2,2,2,0,0,0,1.1-.3Z" transform="translate(0 -3)"/><path class="cls-2" d="M107.1,34.8a5.1,5.1,0,0,1-2.1-1l.9-2,1.8.9a8.3,8.3,0,0,0,2.2.3,2.9,2.9,0,0,0,1.7-.4.9.9,0,0,0,.5-.9.9.9,0,0,0-.3-.7l-.8-.4-1.4-.4a10.5,10.5,0,0,1-2.3-.7,4.4,4.4,0,0,1-1.5-1,2.9,2.9,0,0,1-.6-1.9,3.3,3.3,0,0,1,.6-1.9,3.9,3.9,0,0,1,1.7-1.3,7.2,7.2,0,0,1,2.7-.5,9.1,9.1,0,0,1,2.3.3,4.6,4.6,0,0,1,1.9.8l-.9,2a6.8,6.8,0,0,0-3.3-.9,2.9,2.9,0,0,0-1.7.4,1.2,1.2,0,0,0-.5,1,1,1,0,0,0,.6.9l2,.6,2.2.6a4,4,0,0,1,1.5,1,2.9,2.9,0,0,1,.6,1.9,3.3,3.3,0,0,1-.6,1.9,3.9,3.9,0,0,1-1.7,1.3,7.8,7.8,0,0,1-2.8.5A8.4,8.4,0,0,1,107.1,34.8Z" transform="translate(0 -3)"/><path class="cls-2" d="M125.1,26.7a4.1,4.1,0,0,1,1,3.1V35h-2.6V30.2a2.6,2.6,0,0,0-.5-1.7,2,2,0,0,0-1.4-.5,2.1,2.1,0,0,0-1.6.6,2.7,2.7,0,0,0-.6,1.9V35h-2.6V22.4h2.6v4.4a5.7,5.7,0,0,1,1.3-.8,4.1,4.1,0,0,1,1.6-.3A4.3,4.3,0,0,1,125.1,26.7Z" transform="translate(0 -3)"/><path class="cls-2" d="M137.7,31.2h-6.9a2.2,2.2,0,0,0,.8,1.3,3.5,3.5,0,0,0,1.8.5l1.2-.2a2.6,2.6,0,0,0,1.1-.7l1.4,1.6a5.1,5.1,0,0,1-3.8,1.4,6,6,0,0,1-2.7-.6,4.9,4.9,0,0,1-1.9-1.6,5.4,5.4,0,0,1-.6-2.5,4.8,4.8,0,0,1,.6-2.4,4.9,4.9,0,0,1,1.8-1.7,5.1,5.1,0,0,1,2.5-.6,4.8,4.8,0,0,1,2.4.6,4,4,0,0,1,1.7,1.7,4.9,4.9,0,0,1,.6,2.5Zm-6.2-3a2.5,2.5,0,0,0-.8,1.4h4.5a2.3,2.3,0,0,0-.7-1.4,2.5,2.5,0,0,0-3,0Z" transform="translate(0 -3)"/><path class="cls-2" d="M148.6,31.2h-6.9a2.2,2.2,0,0,0,.8,1.3,3.5,3.5,0,0,0,1.8.5l1.2-.2a2.6,2.6,0,0,0,1.1-.7l1.4,1.6a5.1,5.1,0,0,1-3.8,1.4,6,6,0,0,1-2.7-.6,4.9,4.9,0,0,1-1.9-1.6,5.4,5.4,0,0,1-.6-2.5,4.8,4.8,0,0,1,.6-2.4,4.9,4.9,0,0,1,1.8-1.7,5.1,5.1,0,0,1,2.5-.6,4.8,4.8,0,0,1,2.4.6A4,4,0,0,1,148,28a4.9,4.9,0,0,1,.6,2.5Zm-6.2-3a2.5,2.5,0,0,0-.8,1.4h4.5a2.3,2.3,0,0,0-.7-1.4,2.5,2.5,0,0,0-3,0Z" transform="translate(0 -3)"/><path class="cls-2" d="M156.5,34.6l-1,.4h-1.2a3.3,3.3,0,0,1-2.5-.8,3.2,3.2,0,0,1-.9-2.4V28.1h-1.4v-2h1.4V23.8h2.6v2.3h2.3v2h-2.3v3.7a1.1,1.1,0,0,0,1.2,1.2,2,2,0,0,0,1.1-.3Z" transform="translate(0 -3)"/></g></g><g id="bootstrap-5-1"><path id="Shape" class="cls-3" d="M8.9,3A4.3,4.3,0,0,0,4.7,7.4,24.2,24.2,0,0,1,4,14.9c-.7,2.3-2,3.8-4,4v2.2c2,.2,3.3,1.7,4,4a24.2,24.2,0,0,1,.7,7.5A4.3,4.3,0,0,0,8.9,37H34.1a4.3,4.3,0,0,0,4.2-4.4,24.2,24.2,0,0,1,.7-7.5c.7-2.3,2-3.8,4-4V18.9c-2-.2-3.3-1.7-4-4a24.2,24.2,0,0,1-.7-7.5A4.3,4.3,0,0,0,34.1,3ZM29.2,23.9c0,3.2-2.4,5.1-6.4,5.1H16a.7.7,0,0,1-.7-.7V11.7A.7.7,0,0,1,16,11h6.8c3.3,0,5.4,1.7,5.4,4.5a4,4,0,0,1-3.3,3.9h0c2.5.3,4.3,2,4.3,4.4ZM22.1,13.3H18.2v5.4h3.2c2.6,0,3.9-1.1,3.9-2.8S24.1,13.3,22.1,13.3Zm-3.9,7.5v5.9h4c2.6,0,4-1,4-2.9s-1.4-3-4.2-3Z" transform="translate(0 -3)"/></g></g></g></svg>